<?xml version="1.0" encoding="utf-8"?>
<!-- Generator: Adobe Illustrator 24.3.0, SVG Export Plug-In . SVG Version: 6.00 Build 0)  -->
<svg version="1.1" id="Layer_1" xmlns="http://www.w3.org/2000/svg" xmlns:xlink="http://www.w3.org/1999/xlink" x="0px" y="0px"
	 viewBox="0 0 130 130" style="enable-background:new 0 0 130 130;" xml:space="preserve">
<style type="text/css">
	.st0{fill:#D37190;}
	.st1{opacity:0.2;fill:#231F20;enable-background:new    ;}
	.st2{fill:#151842;}
	.st3{opacity:0.14;fill:#31303E;enable-background:new    ;}
	.st4{fill:#31303E;}
	.st5{fill:#F8AFA7;}
	.st6{fill:#FFCE51;}
	.st7{fill:#E6E5E8;}
	.st8{fill:#FFFFFF;}
	.st9{fill:#8BC9DD;}
	.st10{fill:#99D9E9;}
	.st11{fill:#9AD3EC;}
	.st12{fill:#CFE9F3;}
	.st13{fill:#E2853F;}
	.st14{fill:#2BA2A3;}
	.st15{fill:#1F8887;}
	.st16{fill:#F04F3F;}
	.st17{fill:#231F20;}
	.st18{fill:#F6964F;}
	.st19{fill:#2A130F;}
	.st20{fill:#080405;}
	.st21{fill:#F79344;}
	.st22{fill:#FCBB68;}
	.st23{fill:#F26963;}
	.st24{fill:#EB92AE;}
	.st25{fill:#B8E0ED;}
	.st26{fill:#DAF1FA;}
	.st27{fill:#56A2BD;}
	.st28{fill:#88878F;}
	.st29{fill:#B7B7C4;}
	.st30{fill:#EBEBF6;}
	.st31{fill:#2F2E32;}
	.st32{fill:#18181C;}
	.st33{fill:#92D7EC;}
	.st34{fill:#81D2E8;}
	.st35{fill:#9E9E9E;}
	.st36{fill:#39ACC6;}
	.st37{opacity:0.4;fill:#FFFFFF;enable-background:new    ;}
	.st38{fill:#F9B8B1;}
	.st39{fill:#212D3E;}
	.st40{fill:#F79F95;}
	.st41{fill:#8C4D57;}
	.st42{opacity:0.32;fill:#323754;enable-background:new    ;}
	.st43{fill:#75ABDC;}
	.st44{opacity:0.18;fill:#ED4D3D;enable-background:new    ;}
	.st45{fill:#6EC6AA;}
	.st46{fill:#261717;}
	.st47{fill:#55813A;}
	.st48{fill:#EABEA7;}
	.st49{fill:#F2CBB4;}
	.st50{fill:#485371;}
	.st51{fill:#172626;}
	.st52{fill:#B3C0E3;}
	.st53{fill:#546285;}
	.st54{opacity:0.05;fill:#FFFFFF;enable-background:new    ;}
	.st55{fill:#C6D0EB;}
	.st56{fill:#45334E;}
	.st57{opacity:0.11;fill:#4B8FCA;enable-background:new    ;}
	.st58{opacity:0.57;fill:#45334E;enable-background:new    ;}
	.st59{fill:#31345E;}
	.st60{fill:#222654;}
	.st61{fill:#20234C;}
	.st62{fill:#CF826B;}
	.st63{fill:#C77961;}
	.st64{fill:#BA7460;}
	.st65{fill:#B26C57;}
	.st66{fill:#DA6127;}
	.st67{fill:#E9702C;}
	.st68{fill:#F58648;}
	.st69{fill:#34272B;}
	.st70{fill:#4A3A41;}
</style>
<path id="Path_3023" class="st0" d="M60.24,14.54c26.906-0.291,48.953,21.284,49.244,48.19s-21.284,48.953-48.19,49.244
	S12.341,90.69,12.05,63.784c0-0.001,0-0.003,0-0.004C11.761,36.876,33.336,14.831,60.24,14.54z"/>
<ellipse id="Ellipse_7" class="st1" cx="43.7" cy="100.05" rx="23.07" ry="2.26"/>
<path class="st2" d="M90.18,79.82c0,0.34-0.02,0.7-0.06,1.08l0,0c0,0.89-0.09,1.85-0.14,2.85h-4.84c0-1,0-2-0.06-2.85l0,0v-0.82
	h0.08c2.15-0.83,3.25-1.24,4.14-0.89c0.263,0.109,0.503,0.265,0.71,0.46L90.18,79.82z"/>
<path class="st2" d="M95.57,80.08c0,0.26,0,0.52,0,0.79l0,0c0,0.9,0,1.87-0.06,2.88H90c0-1-0.11-2-0.16-2.85l0,0
	c0-0.38-0.02-0.74-0.06-1.08l0.22-0.2c0.246-0.198,0.523-0.353,0.82-0.46c1-0.34,2.16,0,4.41,0.79l0,0l0.3,0.1L95.57,80.08z"/>
<ellipse class="st3" cx="84.82" cy="97.08" rx="38.58" ry="0.8"/>
<path class="st4" d="M44.52,77.86h7.8l0,0l0,0c0,0.707-0.572,1.28-1.279,1.281c-0.014,0-0.027,0-0.041-0.001h-5.2
	C45.093,79.14,44.52,78.567,44.52,77.86L44.52,77.86L44.52,77.86z"/>
<polygon class="st4" points="55.8,96.82 54.2,96.82 48.42,78.73 50.02,78.73 "/>
<polygon class="st4" points="41.05,96.82 42.65,96.82 48.42,78.73 46.82,78.73 "/>
<polygon class="st4" points="107.5,96.82 105.9,96.82 100.12,78.62 101.73,78.62 "/>
<path class="st5" d="M73,66.08v-0.06c0.3-0.44,1.21-0.38,1.49-0.34h0.08c0.352,0.042,0.692,0.154,1,0.33
	c0.258,0.143,0.5,0.314,0.72,0.51l0,0c0-0.68-0.08-1.11,0-1.13s0.31,0.5,0.56,1.2c0.07,0.167,0.098,0.349,0.08,0.53l0,0l0.15,0.15
	l0.15,0.06l0,0l0,0l3.11,1.41l0.44,0.2L81,69l0,0l0.18,0.08L83,70l0.53,0.26l0.17,0.08l0.18,0.11L84,70.53l0.21,0.13h0.07l0.23,0.14
	l0.93,0.58l0,0v0.17c0.006,0.023,0.006,0.047,0,0.07l0,0c-0.052,0.215-0.129,0.423-0.23,0.62c-0.099,0.175-0.22,0.336-0.36,0.48
	c-0.17,0.19-0.382,0.337-0.62,0.43H84c-0.136,0.015-0.274,0.015-0.41,0l0,0h-0.12h-0.1h-0.09L83,72.94h-0.06l-0.14-0.06l-0.14-0.09
	l0,0c-0.34-0.23-1.13-0.83-2.08-1.56s-2.1-1.64-3-2.44l-0.63-0.25h-0.11h-0.06h-0.14l0,0l-0.46-0.15l-0.5-0.14
	c-1.19-0.3-1.91-0.33-2.36-1c-0.12-0.169-0.208-0.359-0.26-0.56C72.95,66.506,72.928,66.282,73,66.08z"/>
<path class="st6" d="M96.28,64.64L96.28,64.64c-0.14,1.18-1.54,2.63-3.78,4.22l0,0l-0.44,0.3l-0.52,0.35
	c-2.36,1.58-4.73,3-7.09,4.25l-1.49-0.73l0.89-2.85l0.6,0.33c1.17-1,2.38-2,3.61-3.09c1.387-1.147,2.767-2.287,4.14-3.42l0,0
	l0.78-0.09l0.22-0.16l0,0l0.35-0.08l1.85-0.37c0.13,0.037,0.254,0.091,0.37,0.16l0.2,0.17v0.05c0.088,0.103,0.155,0.222,0.2,0.35
	v0.15C96.23,64.327,96.267,64.482,96.28,64.64z"/>
<rect x="34.84" y="73.91" class="st7" width="75.25" height="2.24"/>
<rect x="34.84" y="76.15" class="st8" width="77.3" height="1.99"/>
<rect x="87.57" y="64.3" class="st9" width="6.58" height="11.73"/>
<rect x="87.57" y="64.3" class="st10" width="1.35" height="11.73"/>
<rect x="90.81" y="65.77" class="st11" width="5.48" height="10.26"/>
<rect x="90.81" y="65.77" class="st12" width="1.13" height="10.26"/>
<polygon class="st13" points="57.13,61.87 56.91,62.49 57.48,62.5 57.31,61.87 "/>
<polygon class="st14" points="57.48,62.5 56.91,62.49 56.88,67.59 57.43,67.6 "/>
<polygon class="st15" points="57.14,67.6 57.43,67.6 57.48,62.5 57.2,62.5 "/>
<path class="st16" d="M56.94,67.87h0.45l0,0l0,0 M57.39,67.82h-0.45l0,0l0,0c0,0-0.03,0.05,0,0.05L57.39,67.82z"/>
<path class="st17" d="M57.39,67.9h-0.45c-0.019,0.007-0.041,0.007-0.06,0l0,0l0,0c0.005-0.04,0.039-0.07,0.08-0.07h0.45h0.06
	c0,0,0,0,0,0.05l0,0C57.451,67.903,57.418,67.911,57.39,67.9z M56.94,67.75L56.94,67.75L56.94,67.75L56.94,67.75L56.94,67.75h0.45
	l0,0l0,0v-0.06h-0.48L56.94,67.75z"/>
<polygon class="st18" points="56.86,67.73 57.47,67.74 57.47,67.58 56.86,67.57 "/>
<path class="st17" d="M57.49,67.76h-0.66v-0.21h0.65L57.49,67.76z M56.88,67.71h0.57V67.6h-0.57V67.71z"/>
<polygon class="st19" points="57.13,61.87 57.22,61.6 57.31,61.87 "/>
<path class="st20" d="M57.22,61.67l-0.06,0.18h0.12L57.22,61.67z"/>
<polygon class="st13" points="56.72,69.91 56.37,69.35 56.94,69.22 56.89,69.88 "/>
<path class="st17" d="M56.71,69.93l-0.36-0.59l0.6-0.14v0.69L56.71,69.93z M56.4,69.36l0.33,0.54h0.15v-0.63L56.4,69.36z"/>
<polygon class="st21" points="56.94,69.22 56.37,69.35 55.3,64.36 55.84,64.24 "/>
<polygon class="st22" points="55.56,64.3 55.84,64.24 56.93,69.22 56.65,69.28 "/>
<path class="st23" d="M55.31,64.08l0.43-0.1c0.021-0.015,0.049-0.015,0.07,0l0,0c0.011,0.019,0.011,0.041,0,0.06l-0.43,0.1
	c-0.021,0.015-0.049,0.015-0.07,0l0,0C55.299,64.121,55.299,64.099,55.31,64.08z"/>
<polygon class="st18" points="55.25,64.23 55.85,64.1 55.89,64.25 55.29,64.38 "/>
<polygon class="st19" points="56.72,69.91 56.86,70.15 56.89,69.88 "/>
<path class="st20" d="M56.87,70.22l-0.18-0.32l0.23-0.05L56.87,70.22z M56.76,69.93l0.09,0.16v-0.18L56.76,69.93z"/>
<polygon class="st13" points="59.29,63.1 58.94,63.66 59.51,63.79 59.47,63.13 "/>
<polygon class="st23" points="59.51,63.79 58.94,63.66 57.87,68.65 58.42,68.77 "/>
<polygon class="st24" points="58.13,68.71 58.41,68.77 59.51,63.79 59.23,63.73 "/>
<path class="st16" d="M57.88,68.93l0.43,0.1c0.021,0.015,0.049,0.015,0.07,0l0,0c0,0,0,0,0-0.06l-0.43-0.1
	c-0.021-0.015-0.049-0.015-0.07,0l0,0C57.88,68.87,57.85,68.92,57.88,68.93z"/>
<path class="st17" d="M58.33,69.05L58.33,69.05l-0.44-0.1l0,0l0,0l0,0c0.026-0.022,0.064-0.022,0.09,0l0.44,0.1l0,0l0,0l0,0
	C58.393,69.068,58.357,69.068,58.33,69.05z M57.9,68.82L57.9,68.82L57.9,68.82L57.9,68.82L57.9,68.82l0.44,0.1l0,0l0,0l0,0l0,0
	L57.9,68.82z"/>
<polygon class="st18" points="57.82,68.78 58.42,68.91 58.46,68.76 57.86,68.63 "/>
<path class="st17" d="M58.44,68.94L57.8,68.8v-0.2l0.64,0.14V68.94z M57.85,68.77l0.56,0.12v-0.12l-0.55-0.12L57.85,68.77z"/>
<polygon class="st19" points="59.29,63.1 59.43,62.86 59.47,63.13 "/>
<path class="st20" d="M59.33,63.08h0.11V62.9L59.33,63.08z"/>
<rect x="55.25" y="67.37" class="st25" width="4.12" height="8.07"/>
<rect x="56.43" y="67.37" class="st26" width="2.95" height="8.07"/>
<polygon class="st27" points="84.53,76.29 75.16,76.29 74.13,75.05 83.49,75.05 "/>
<polygon class="st22" points="87.5,75.83 78.14,75.83 77.1,74.59 86.47,74.59 "/>
<path class="st28" d="M58.91,74.3l7.55-1.16L80,74l-13.39,2L58.91,74.3z"/>
<path class="st29" d="M80,74l-13.51,1.9l-7.58-1.6v0.24l7.4,1.9L80,74.4V74z"/>
<path class="st30" d="M61.87,63.61h-0.35c-0.024,0.061-0.041,0.125-0.05,0.19c-0.007,0.103,0.01,0.205,0.05,0.3
	c0.2,0.54,2.56,6.68,4.38,11.43c0.04,0.101,0.142,0.162,0.25,0.15l13.76-1.82l0.07-0.09c0.01-0.046,0.01-0.094,0-0.14l-5-9.16
	L61.87,63.61z"/>
<path class="st31" d="M75.25,64.3l-13.73-0.71l4.57,11.85L80,73.63L75.25,64.3z"/>
<path class="st32" d="M75.25,64.3l-13.73-0.71c1.433,3.727,2.87,7.453,4.31,11.18l13.94-1.62C78.27,70.197,76.763,67.247,75.25,64.3
	z"/>
<path class="st33" d="M61.87,63.91c1.233,3.187,2.467,6.38,3.7,9.58l0.3,0.79l13.46-1.49c-0.11-0.21-0.22-0.43-0.32-0.64l-3.89-7.66
	L61.87,63.91z"/>
<path class="st34" d="M75.12,64.49c-0.771,1.31-1.44,2.677-2,4.09c-0.47,1.22-0.54,1.64-0.78,2.14c-0.6,1.27-2.16,2.78-6.5,3.56
	l13.46-1.49L75.12,64.49z"/>
<path class="st31" d="M77.92,73.7v0.24c0,0.25,0.07,0.5,0.1,0.75l1-0.14h0.07c-0.05-0.33-0.09-0.66-0.13-1L77.92,73.7z"/>
<path class="st31" d="M67.59,75v0.28l0.09,1l1.36-0.2h0.06L69,74.79L67.59,75z"/>
<path class="st35" d="M78,73.89L78,73.89c0,0.25,0.07,0.5,0.1,0.75l1-0.14l-0.55-0.72L78,73.89z"/>
<path class="st35" d="M67.61,75.24l0.09,1l1.36-0.2l-0.52-0.92L67.61,75.24z"/>
<path class="st31" d="M65.7,76.099l-0.371-0.08c-0.054-0.012-0.088-0.065-0.077-0.119l0.002-0.01
	c0.012-0.054,0.065-0.088,0.119-0.077l0.371,0.08c0.054,0.012,0.088,0.065,0.077,0.119l-0.002,0.01
	C65.807,76.076,65.754,76.11,65.7,76.099z"/>
<path class="st31" d="M62.92,75.41l0.47,0.11c0.018,0.013,0.042,0.013,0.06,0l0,0c0.011-0.019,0.011-0.041,0-0.06l-0.47-0.1
	c-0.018-0.013-0.042-0.013-0.06,0l0,0C62.92,75.36,62.89,75.41,62.92,75.41z"/>
<path class="st8" d="M72.16,64.87l-5.63-0.26c-0.092,0.04-0.165,0.116-0.2,0.21c0,0.17,0.12,0.4,0.42,0.47l5.64,0.14
	c0.083-0.064,0.128-0.165,0.12-0.27C72.481,64.99,72.332,64.867,72.16,64.87z"/>
<path class="st36" d="M65.57,73.49l0.3,0.79l13.46-1.49c-0.11-0.21-0.22-0.43-0.32-0.64L65.57,73.49z"/>
<path class="st37" d="M73.31,68.52c0.031,0.24,0.25,0.409,0.49,0.38c0.226-0.089,0.342-0.341,0.26-0.57
	c0.002-0.221-0.175-0.402-0.396-0.404c-0.221-0.002-0.402,0.175-0.404,0.396C73.259,68.392,73.277,68.46,73.31,68.52z"/>
<path class="st37" d="M74.94,68.52c0.041,0.238,0.259,0.405,0.5,0.38c0.223-0.092,0.336-0.341,0.26-0.57
	c-0.009-0.221-0.195-0.392-0.416-0.383s-0.392,0.195-0.383,0.416C74.903,68.417,74.916,68.471,74.94,68.52z"/>
<path class="st37" d="M71,66.75c0.031,0.24,0.25,0.409,0.49,0.38c0.224-0.078,0.343-0.323,0.265-0.548
	c-0.001-0.004-0.003-0.008-0.005-0.012c-0.031-0.24-0.25-0.409-0.49-0.38c-0.224,0.078-0.343,0.323-0.265,0.548
	C70.997,66.742,70.998,66.746,71,66.75z"/>
<path class="st37" d="M72.76,66.75c0.041,0.238,0.259,0.405,0.5,0.38c0.27-0.012,0.479-0.242,0.467-0.512
	c-0.012-0.27-0.242-0.479-0.512-0.467c-0.27,0.012-0.479,0.242-0.467,0.512C72.749,66.692,72.753,66.721,72.76,66.75z"/>
<path class="st37" d="M74.3,66.75c0.095,0.199,0.334,0.283,0.534,0.188s0.283-0.334,0.188-0.534
	c-0.083-0.173-0.276-0.262-0.461-0.214c-0.224,0.078-0.343,0.323-0.265,0.548C74.297,66.742,74.298,66.746,74.3,66.75z"/>
<path class="st37" d="M70,66.25h-0.71l0.21,0.79l0.73-0.06L70,66.25z"/>
<path class="st37" d="M72.15,68.09h-0.71l0.22,0.8l0.72-0.07L72.15,68.09z"/>
<path class="st37" d="M76.19,69.56l-0.71,0.08l0.28,0.78l0.72-0.13L76.19,69.56z"/>
<path class="st37" d="M74.44,69.72h-0.71l0.21,0.79l0.73-0.06L74.44,69.72z"/>
<path class="st37" d="M72.74,69.9h-0.71l0.21,0.8l0.73-0.07L72.74,69.9z"/>
<path class="st38" d="M63.66,71.24v-0.07c0.06-0.53,0.89-0.9,1.16-1h0.07c0.32-0.118,0.659-0.176,1-0.17
	c0.293,0.012,0.584,0.053,0.87,0.12l0,0c-0.36-0.58-0.58-0.94-0.5-1s0.51,0.31,1.06,0.81c0.142,0.111,0.25,0.26,0.31,0.43l0,0
	l0.21,0.06h0.21c0.74,0,2-0.13,3.41-0.2h0.48h0.36l2-0.09h0.59h0.19h0.2h0.48L76,70l1.09,0.07l0,0c0.004,0.057,0.004,0.113,0,0.17
	c0.006,0.023,0.006,0.047,0,0.07l0,0l0,0c0.054,0.212,0.081,0.431,0.08,0.65c0.001,0.203-0.026,0.405-0.08,0.6
	c-0.07,0.244-0.193,0.469-0.36,0.66l-0.12,0.08c-0.114,0.068-0.235,0.125-0.36,0.17l0,0h-0.12H76h-0.38h-0.37l0,0l0,0
	c-0.41,0-1.39-0.2-2.57-0.4s-2.62-0.47-3.83-0.73c-0.2,0-0.42,0-0.67,0.08H68h-0.16l0,0l-0.47,0.08l-0.51,0.11
	c-1.19,0.29-1.84,0.6-2.54,0.25c-0.183-0.095-0.349-0.22-0.49-0.37C63.757,71.419,63.699,71.334,63.66,71.24z"/>
<path class="st6" d="M88.22,63.66L88.22,63.66c-0.14,1.19-1.54,2.63-3.78,4.23l0,0L84,68.19l-0.52,0.35
	c-0.37,0.25-3.09,1.91-6.84,4.17c-0.28-0.94-0.55-1.88-0.83-2.82l8.38-6.88l0,0l0.78-0.08l0.22-0.17l0,0l0.35-0.07
	c0.62-0.13,1.24-0.26,1.85-0.37c0.131,0.035,0.255,0.089,0.37,0.16l0.2,0.17l0,0c0.086,0.108,0.153,0.23,0.2,0.36v0.14
	C88.207,63.316,88.227,63.488,88.22,63.66z"/>
<path class="st6" d="M94.84,62.52c1.404,0.294,2.385,1.567,2.31,3c-0.08,1.58-0.14,3.19-0.19,4.81c-0.1,3.35-0.15,6.63-0.15,9.82
	l-0.36,0.36h-11.4c-0.22-4.187-0.437-8.373-0.65-12.56c-0.09-1.63-0.17-3.26-0.25-4.88l0,0l1-0.22l0,0l0.35-0.07
	c0.62-0.13,1.24-0.26,1.85-0.37l0.85-0.16l0.56-0.11h3.64c0.77,0.13,1.58,0.27,2.41,0.44L94.84,62.52z"/>
<path class="st38" d="M85.57,49.2c-0.438,1.083-0.685,2.233-0.73,3.4c0,0.72-0.14,4.47,2.16,5.94c0.563,0.32,1.18,0.533,1.82,0.63
	c1.173,0.381,2.437,0.381,3.61,0c1.467-0.718,2.559-2.027,3-3.6c0.338-0.962,0.484-1.981,0.43-3c-0.043-0.629-0.146-1.252-0.31-1.86
	c-0.13-0.46-1.54-5.1-4.83-5.31C88.69,45.22,86.58,46.79,85.57,49.2z"/>
<path class="st39" d="M92.45,45.62c0.824,0.262,1.588,0.683,2.25,1.24c2.91,2.54,2.09,6.94,2,15c-0.06,8.7,0.85,11.25-0.25,11.66
	c-1.72,0.63-7.1-4.5-7.79-10.51c-0.37-3.25,0.68-6.34-1.43-9c-0.611-0.74-1.37-1.343-2.23-1.77c-0.963-1.521-1.156-3.406-0.52-5.09
	c0.864-2.121,3.034-3.409,5.31-3.15C90.836,44.22,91.775,44.792,92.45,45.62z"/>
<path class="st38" d="M87.35,53.11c0,0.87-0.26,1.57-0.59,1.57s-0.59-0.7-0.59-1.57s0.27-1.56,0.59-1.56S87.35,52.25,87.35,53.11z"
	/>
<path class="st6" d="M86.12,52.21c0-0.61,0-3.83,2.31-5.61c1.85-1.42,4.44-1.37,4.55-1s-1.57,0.69-3.39,2.14
	C88.102,48.94,86.914,50.471,86.12,52.21z"/>
<path class="st40" d="M49.63,57.2c0,0.2-0.23,0.3-0.3,0.34c-0.29,1.84-0.45,2.24-0.54,2.23s-0.17-0.74-0.17-1.18
	c0.008-0.392,0.061-0.781,0.16-1.16l0.43-1.29c0.14,0.28,0.25,0.53,0.36,0.77C49.622,56.997,49.643,57.099,49.63,57.2z"/>
<path class="st40" d="M49.78,44.24c-0.141,0.211-0.376,0.341-0.63,0.35h-0.1c-0.33-0.062-0.67-0.062-1,0h-0.12l0,0
	c-0.241,0.054-0.476,0.135-0.7,0.24l0,0h-0.09l-0.19,0.11l-0.12,0.11l0,0l0,0v0.07c-0.004,0.07-0.004,0.14,0,0.21l0,0
	c0,0.15,0,0.35,0.08,0.58s0,0.2,0,0.32l0,0l0,0v0.17c0,0.07,0,0.15,0,0.22s0,0,0,0c0.24,1.26,0.64,3,1,4.79L48.62,54l0,0
	c0,0.09,0,0.16,0,0.24l0,0l0,0l0.46,1.91l0,0c0,0,0,0,0,0.06s0,0,0,0l0,0c0,0.12,0,0.24,0.08,0.34s0,0.11,0,0.16s0,0.07,0,0.1
	s0,0.2,0,0.3s0,0.24,0,0.35l0,0c0.559,0.122,1.128,0.186,1.7,0.19c0.29,0,0.41-0.09,0.45-0.18c0.11-0.28-0.5-1.29-0.54-1.42s0,0,0,0
	V56l0,0c0.006-0.023,0.006-0.047,0-0.07c0-0.15-0.09-0.29-0.13-0.42s0,0,0-0.05s-0.07-0.27-0.11-0.4c0.155-2.331,0.155-4.669,0-7
	c-0.062-0.919-0.196-1.832-0.4-2.73C50,45,49.88,44.54,49.78,44.24z"/>
<path class="st40" d="M52,59.47c0.05-0.476,0.016-0.956-0.1-1.42c-0.202-0.762-0.61-1.454-1.18-2l-1.43,0.22
	c-0.175,0.559-0.237,1.147-0.18,1.73c0.21,1.62,1.38,3.21,2.07,3.06C51.45,61,51.76,60.68,52,59.47z"/>
<path class="st40" d="M31.35,31.55c0.116,1.374,0.313,2.739,0.59,4.09c0,0.08,0,0.17,0,0.26c0.06,0.29,0.1,0.56,0.15,0.8l0.18,1.13
	c0,0.17,0,0.34,0.07,0.51l0.06,0.45c0.15,1.08,0.25,2.12,0.31,3.1c0,0.39,0,0.77,0.07,1.14c0,0.11,0,0.22,0,0.33
	c0,0.29,0,0.57,0,0.84c0,0.52,0,1,0,1.49s0,0.64,0,0.94s0,0.85-0.06,1.24s-0.06,0.77-0.09,1.11l0,0c0,0.54-0.1,1-0.15,1.37
	c-0.11,0.8-0.21,1.23-0.21,1.23h13.39l0,0L45.52,51v-0.11c-0.187-0.621-0.341-1.252-0.46-1.89c-0.06-0.37-0.12-0.74-0.16-1.11
	c0,0,0-0.07,0-0.1c0-0.19,0-0.39-0.06-0.58s0-0.1,0-0.14s0-0.24,0-0.24s0-0.13,0-0.19s0-0.09,0-0.13s0-0.22,0-0.32s0-0.2,0-0.3
	c-0.005-0.06-0.005-0.12,0-0.18v-0.17c0-0.14,0-0.27,0-0.4c0-0.31,0-0.61,0-0.92s0-0.56,0-0.84c0-0.11,0-0.22,0-0.33s0-0.19,0-0.29
	c0-0.28,0-0.56,0.07-0.84l0,0L45,41c0-0.17,0.05-0.35,0.07-0.52s0-0.34,0.07-0.51s0.07-0.56,0.11-0.84s0.05-0.32,0.07-0.48
	s0.08-0.51,0.12-0.75l0,0c0-0.16,0-0.33,0.08-0.49s0-0.32,0.07-0.48l0.06-0.46l0,0c0.06-0.4,0.13-0.81,0.21-1.23
	c0.25-1.33,0.58-2.65,0.68-3.36c0.013-0.123,0.013-0.247,0-0.37c0-0.12,0-0.18-0.09-0.17s0-0.06-0.12-0.11
	c-0.52-0.18-2.25-0.48-2.25-0.48l-0.53-0.1h-0.07l-1.92-0.39h-0.07L41,30.06h-0.08v-3.83h-4.17v3.82h-0.08h-0.08l-0.57,0.11
	l-1.94,0.39l0,0L31.94,31l-0.57,0.16l0,0C31.351,31.289,31.344,31.42,31.35,31.55z"/>
<path class="st40" d="M25.13,45.58L30.08,32c0.426-0.286,0.955-0.374,1.45-0.24c1.12,0.38,1.75,2.52,1.23,5.35
	c-1.567,3.333-3.133,6.69-4.7,10.07c-0.358,0.668-1.102,1.034-1.85,0.91c-0.965-0.335-1.477-1.388-1.142-2.354
	C25.086,45.683,25.107,45.631,25.13,45.58z"/>
<path class="st40" d="M48.61,47.62c-0.758,0.02-1.442-0.453-1.69-1.17c-0.08-0.24-0.15-0.48-0.22-0.72c-0.66-2.19-1.31-4.37-2-6.55
	c-0.34-1.12-0.68-2.25-1-3.37l2.21-3.21l0.94-1.37l0.27,0.1c0.44,2.3,0.9,4.633,1.38,7c0.447,2.187,0.907,4.347,1.38,6.48l0.15,0.72
	c0.192,0.958-0.429,1.891-1.387,2.084C48.632,47.616,48.621,47.618,48.61,47.62z"/>
<path class="st41" d="M37.16,55.58L37.16,55.58c0,0,0,0.09,0,0.14V55.58z"/>
<path class="st42" d="M42.8,52.68c0.023,0.132,0.053,0.262,0.09,0.39c0.088,0.35,0.222,0.686,0.4,1c0.239,0.378,0.536,0.715,0.88,1
	c0.689,0.483,1.592,0.534,2.33,0.13c-0.574-0.323-1.083-0.75-1.5-1.26c-0.253-0.306-0.468-0.642-0.64-1
	c-0.06-0.12-0.11-0.24-0.16-0.36L43,52.66L42.8,52.68z"/>
<path class="st43" d="M43,52.66l0.07,0.39v0.15c0.273,1.389,1.606,2.304,3,2.06l0.43-0.09c0.004-0.023,0.004-0.047,0-0.07l0.17,0.38
	l-0.52,0.1c-1.583,0.31-3.117-0.722-3.427-2.304c-0.001-0.005-0.002-0.011-0.003-0.016v-0.18l-0.08-0.39L43,52.66z"/>
<path class="st44" d="M40.92,27.41c-0.312,0.284-0.68,0.498-1.08,0.63c-0.887,0.258-1.84,0.154-2.65-0.29l2,3.28
	c0.484-0.015,0.965-0.068,1.44-0.16c0.609-0.114,1.205-0.288,1.78-0.52l-1.49-0.3L40.92,27.41z"/>
<path class="st45" d="M32.28,51.58c2.701,0.275,5.419,0.342,8.13,0.2c1.754-0.089,3.503-0.266,5.24-0.53l-0.07-0.34
	c-0.306-1.216-0.5-2.458-0.58-3.71c-0.109-1.366-0.076-2.741,0.1-4.1c0.13-0.94,0.36-2.09,0.54-4.12c0.007-0.11,0.007-0.22,0-0.33
	c0-0.11,0-0.19,0-0.19v-0.1c0-0.47,0-0.77,0.14-1.84c0.19-2.19,0.42-4.05,0.61-5.46l-4-0.75c-0.927,1.907-3.225,2.702-5.133,1.774
	c-0.797-0.388-1.436-1.039-1.807-1.844l-4,0.74c0.1,1.37,0.28,3.42,0.6,5.92c0.08,0.63,0.15,1.19,0.22,1.68
	c0.18,1.27,0.32,2.14,0.35,2.39c0.344,2.654,0.365,5.341,0.06,8c0,0.45-0.08,0.85-0.12,1.18s-0.09,0.58-0.12,0.79
	S32.32,51.39,32.28,51.58z"/>
<path class="st5" d="M43.75,19.85c0,0.28,0,0.57,0,0.87s-0.07,0.59-0.07,0.59c0,0.18-0.07,0.34-0.11,0.49
	c-0.06,1.247-0.42,2.462-1.05,3.54l-0.1,0.17c-0.452,0.895-1.118,1.665-1.94,2.24c-0.507,0.298-1.083,0.456-1.67,0.46
	c-0.592-0.026-1.168-0.205-1.67-0.52c-1.176-0.819-2.047-2.004-2.48-3.37c-0.56-1.422-0.825-2.943-0.78-4.47c0-0.34,0-0.69,0-1.05
	c0-0.56,0.09-1.15,0.14-1.78c0.012-0.64,0.17-1.269,0.46-1.84c0.707-1.091,1.853-1.82,3.14-2c0.281-0.007,0.563,0.014,0.84,0.06
	c0.641-0.066,1.289-0.032,1.92,0.1c1.093,0.335,2.034,1.043,2.66,2c0.488,0.998,0.732,2.099,0.71,3.21
	C43.76,18.9,43.77,19.35,43.75,19.85z"/>
<path class="st46" d="M43.82,19.94l-0.07-0.09c-0.14-0.194-0.235-0.416-0.28-0.65c-0.188-0.264-0.402-0.509-0.64-0.73
	c-0.754-0.617-1.658-1.024-2.62-1.18c-0.247-0.057-0.498-0.1-0.75-0.13c-0.21-1.13-0.41-2.27-0.61-3.4L39,17.23
	c-2.307-0.075-4.337,1.513-4.82,3.77c-0.097,0.665-0.074,1.343,0.07,2c0.112,0.645,0.314,1.271,0.6,1.86
	c-1.315-0.761-2.213-2.078-2.44-3.58c-0.097-0.953,0.11-1.912,0.59-2.74c0.14-1.054,0.48-2.072,1-3
	c0.354-0.785,0.918-1.456,1.63-1.94c0.962-0.537,2.098-0.674,3.16-0.38c1.428-0.225,2.884,0.172,4,1.09
	c0.274,0.259,0.509,0.555,0.7,0.88C44.231,16.665,44.35,18.376,43.82,19.94z"/>
<path class="st5" d="M34.41,20.38c0.08,0.9-0.17,1.66-0.54,1.69s-0.75-0.67-0.83-1.57s0.17-1.65,0.55-1.68S34.33,19.48,34.41,20.38z
	"/>
<path class="st47" d="M45,30.79l-0.27,6.67l-1.31-0.11l0.3-6.84L45,30.79z"/>
<path class="st45" d="M26,44.61c1.105-0.617,2.485-0.425,3.38,0.47c1.253-2.38,2.497-4.763,3.73-7.15c-0.52-2.32-1.043-4.653-1.57-7
	C31.357,30.926,31.175,30.949,31,31c-0.305,0.083-0.586,0.237-0.82,0.45c-1.72,4.78-3.447,9.543-5.18,14.29l-0.05,0.45
	C25.079,45.546,25.456,44.978,26,44.61z"/>
<path class="st48" d="M44.89,77.16c0.45-2.7,0.89-5.39,1.34-8.09c0.59-9.13,0.15-16-1.31-16.46c-0.552-0.139-1.123-0.183-1.69-0.13
	c-0.72,0.061-1.41,0.313-2,0.73c-1.78,1.32-2.25,4.39-1.06,7.61v14.15c-0.343,1.384,0.424,2.801,1.77,3.27
	C43.053,78.542,44.235,78.109,44.89,77.16z"/>
<path class="st49" d="M40.93,81.54l-2.37-16.78c-0.21-0.55-0.54-1.39-0.88-2.43c-0.94-2.88-0.92-4-1.78-4.48
	c-1.061-0.387-2.242-0.254-3.19,0.36c-0.635,0.319-1.213,0.741-1.71,1.25c-1.47,1.54,0.54,10.2,4.85,21.24
	c0.039,1.429,1.163,2.592,2.59,2.68C39.573,83.348,40.567,82.614,40.93,81.54z"/>
<path class="st40" d="M39.47,81.61c0,0.66,0.08,1.16,0.11,1.55c0.205,1.942,0.516,3.872,0.93,5.78c0.15,0.78,0.38,2,0.67,3.59v1.78
	v0.9c0.346,0.378,0.789,0.655,1.28,0.8c0.427,0.116,0.874,0.137,1.31,0.06c0.407-5.66,0.76-11.363,1.06-17.11L45,77
	c0.117-1.168-0.478-2.291-1.51-2.85c-1.031-0.348-2.171-0.081-2.94,0.69C39.23,76.05,39.33,78.21,39.47,81.61z"/>
<path class="st50" d="M47.25,57.32c-0.06,1.227-0.12,2.467-0.18,3.72c-0.17,2.24-0.37,4.54-0.61,6.88c-0.3,3-0.66,6-1.05,8.81
	c0,0.62-0.07,1.24-0.1,1.86c-0.3,5.393-0.597,10.78-0.89,16.16l-3.28-0.46c-0.821-2.511-1.329-5.114-1.51-7.75
	c-0.166-2.423-0.012-4.857,0.46-7.24l0.12-0.61c0.16-0.7,0.34-1.38,0.53-2c-1.687-5.133-2.745-10.452-3.15-15.84
	c-0.185-2.472-0.229-4.953-0.13-7.43c0.52,0,0.91-0.16,0.95-0.37l0,0c0.01-0.029,0.01-0.061,0-0.09c-0.42,0-0.87,0-1.34,0h-0.48
	c-0.6,0-1.23-0.04-1.89-0.12c-0.907-0.098-1.809-0.245-2.7-0.44l0,0l0,0l0,0l0,0c0.06-0.21,0.15-0.58,0.23-0.9
	c0-0.09,0-0.18,0.07-0.27v-0.21l0,0c2.46,0.27,4.935,0.384,7.41,0.34c2.08,0,4-0.19,5.77-0.39l0,0l0.1,0.45v0.05v0.14
	c0,0.22,0.1,0.43,0.16,0.65l0,0c0.004,0.02,0.004,0.04,0,0.06l0,0l0,0l0,0l0.08,0.2l0,0c0.08,0.22,0.17,0.46,0.26,0.73
	s0.2,0.59,0.3,0.91l0.09,0.3C46.83,55,47,56,47.25,57.32z"/>
<path class="st51" d="M51.75,100.49l-0.24,0.71c-0.39,0-1,0-1.65-0.12c-1.703-0.227-3.378-0.625-5-1.19
	c-1.07-0.34-2.48-0.82-4.12-1.48v-1.55L51.75,100.49z"/>
<path class="st52" d="M40.82,97.89c8.58,3,10.73,3.13,11,2.59s-0.73-1.49-1.37-2c-0.514-0.389-1.088-0.689-1.7-0.89
	c-0.106-0.047-0.21-0.101-0.31-0.16l-0.25-0.17L47.9,97l-0.12-0.1l-0.13-0.11l-0.25-0.24l-0.23-0.19l-0.28-0.21L46.61,96l-0.28-0.15
	l0,0L46,95.69l-0.33-0.13l-0.24-0.07V95.3c-0.757,0.097-1.523,0.097-2.28,0c-0.624-0.078-1.237-0.222-1.83-0.43
	c-0.317,0.533-0.508,1.132-0.56,1.75C40.712,97.044,40.732,97.473,40.82,97.89z"/>
<path class="st52" d="M43.67,93.86c-0.13,0.18-0.12,0.37-0.11,0.74c-0.029,0.371,0.059,0.741,0.25,1.06
	c0.166,0.273,0.437,0.465,0.75,0.53c0.486,0.017,0.934-0.265,1.13-0.71c0.049-0.26,0.073-0.525,0.07-0.79c0-0.5,0-0.84-0.26-1
	c-0.279-0.17-0.615-0.217-0.93-0.13C44.242,93.532,43.916,93.641,43.67,93.86z"/>
<path class="st8" d="M46.21,97.41c0.066,0.066,0.174,0.066,0.24,0l0.72-1l-0.28-0.21l-0.72,1
	C46.132,97.271,46.149,97.358,46.21,97.41z"/>
<path class="st8" d="M45.55,97.16c0.058,0.066,0.16,0.073,0.226,0.014c0.005-0.004,0.01-0.009,0.014-0.014L46.61,96l-0.28-0.15l0,0
	l-0.79,1.09C45.493,97.007,45.497,97.098,45.55,97.16z"/>
<path class="st8" d="M44.88,96.91c0.066,0.066,0.174,0.066,0.24,0L46,95.69l-0.33-0.13l-0.81,1.11
	C44.804,96.743,44.813,96.847,44.88,96.91z"/>
<path class="st8" d="M46.79,97.71c0.066,0.066,0.174,0.066,0.24,0l0.62-0.85l-0.25-0.24l-0.65,0.89
	C46.721,97.579,46.737,97.658,46.79,97.71z"/>
<path class="st8" d="M47.45,98c0.066,0.066,0.174,0.066,0.24,0l0.49-0.67L47.9,97l-0.48,0.67c-0.086,0.059-0.108,0.178-0.049,0.264
	C47.391,97.963,47.418,97.986,47.45,98z"/>
<path class="st8" d="M48.12,98.13c0.066,0.066,0.174,0.066,0.24,0l0.38-0.53c-0.106-0.047-0.21-0.101-0.31-0.16l-0.35,0.48
	C48.038,97.99,48.055,98.08,48.12,98.13z"/>
<path class="st40" d="M34.27,85.18c-0.15,0.64-0.24,1.13-0.3,1.52c-0.312,1.928-0.523,3.87-0.63,5.82c-0.06,0.79-0.16,2-0.29,3.64
	l-0.45,1.72l-0.21,0.88c0.227,0.453,0.573,0.837,1,1.11c0.38,0.229,0.808,0.366,1.25,0.4c1.88-5.333,3.713-10.743,5.5-16.23
	c0.21-0.62,0.41-1.25,0.61-1.87c0.437-1.097,0.169-2.349-0.68-3.17c-0.901-0.595-2.061-0.634-3-0.1
	C35.49,79.75,35,81.86,34.27,85.18z"/>
<path class="st53" d="M30.65,65.18c1.38,4.76,2.757,9.52,4.13,14.28c-0.707,5.82-1.413,11.637-2.12,17.45L36.6,98
	c1.673-6.287,3.34-12.577,5-18.87c-0.7-6.533-1.403-13.063-2.11-19.59c0.38-2.1,0.817-4.2,1.31-6.3v-0.1c-0.77,0-1.58,0-2.41-0.08
	L37.06,53l-1.31-0.12h-0.12c-1.23-0.12-2.41-0.28-3.52-0.46H32l0,0c0,0,0,0.1,0,0.32c-1.482,3.976-1.943,8.26-1.34,12.46
	L30.65,65.18z"/>
<path class="st45" d="M50.21,44.67l-0.31,0.1l-3.2,1l-0.2,0.05c-0.59-2.16-1.19-4.33-1.78-6.5v-0.1
	c0.192-2.226,0.594-4.429,1.2-6.58l0.06-0.21c0.13-0.46,0.26-0.9,0.41-1.34l0.47,0.18l0.27,0.1l0,0L50.21,44.67z"/>
<path class="st46" d="M43.58,21.83c-0.244,1.88-1.017,3.653-2.23,5.11c-0.15,0.16-0.29,0.32-0.44,0.47c0,1.8,0,3.7,0.13,5.68
	c0.226,3.939,0.741,7.856,1.54,11.72c1.03-0.479,1.928-1.199,2.62-2.1c2.25-3,1.39-7.34,1-9.3c-0.24-1.25-0.47-1.67-0.7-3.27
	c-0.192-1.505-0.269-3.023-0.23-4.54c-0.05-3.93-0.81-7.83-1.18-7.82C43.93,17.79,43.73,18.49,43.58,21.83z"/>
<path class="st54" d="M34.89,97.52l1.71,0.4c1.68-6.36,3.347-12.717,5-19.07l-2.11-19.52c0.153,6.56,0.297,13.117,0.43,19.67
	C38.253,85.18,36.577,91.353,34.89,97.52z"/>
<path class="st51" d="M42.78,104.14l-0.27,0.7c-0.38,0-0.95-0.07-1.64-0.17c-1.664-0.281-3.296-0.73-4.87-1.34
	c-1.07-0.37-2.46-0.9-4.08-1.6l0.06-1.55L42.78,104.14z"/>
<path class="st55" d="M31.93,101.21c8.49,3.27,10.63,3.45,10.91,2.92s-0.69-1.51-1.31-2.06c-0.504-0.405-1.072-0.722-1.68-0.94
	l-0.3-0.17l-0.25-0.17l-0.26-0.22l-0.12-0.11l-0.13-0.12l-0.25-0.24l-0.22-0.2l-0.27-0.21l-0.28-0.19l-0.27-0.16l0,0l-0.31-0.15
	c-0.11-0.053-0.224-0.1-0.34-0.14L36.59,99v-0.19c-0.756,0.077-1.519,0.057-2.27-0.06c-0.623-0.094-1.234-0.258-1.82-0.49
	c-0.332,0.527-0.544,1.121-0.62,1.74C31.842,100.404,31.858,100.811,31.93,101.21z"/>
<path class="st55" d="M34.9,97.27c-0.124,0.226-0.169,0.486-0.13,0.74c-0.035,0.372,0.045,0.745,0.23,1.07
	c0.158,0.273,0.422,0.469,0.73,0.54c0.47,0.042,0.92-0.202,1.14-0.62c0.058-0.259,0.088-0.524,0.09-0.79c0-0.5,0-0.84-0.22-1
	c-0.277-0.172-0.612-0.227-0.93-0.15C35.491,97.002,35.162,97.078,34.9,97.27z"/>
<path class="st8" d="M37.33,100.89c0.07,0.067,0.18,0.067,0.25,0l0.74-1l-0.27-0.21l-0.75,1
	C37.26,100.748,37.272,100.836,37.33,100.89z"/>
<path class="st8" d="M36.68,100.62c0.066,0.066,0.174,0.066,0.24,0l0.85-1.09l-0.27-0.16l0,0l-0.82,1.06
	C36.638,100.486,36.638,100.564,36.68,100.62z"/>
<path class="st8" d="M36,100.35c0.066,0.066,0.174,0.066,0.24,0l0.9-1.15c-0.11-0.053-0.224-0.1-0.34-0.14l-0.8,1.05
	C35.934,100.176,35.934,100.284,36,100.35z"/>
<path class="st8" d="M37.9,101.21c0.072,0.063,0.178,0.063,0.25,0l0.64-0.84l-0.25-0.24L37.87,101
	C37.83,101.068,37.842,101.156,37.9,101.21z"/>
<path class="st8" d="M38.56,101.47c0.066,0.066,0.174,0.066,0.24,0l0.5-0.65l-0.26-0.22l-0.51,0.65
	C38.488,101.322,38.501,101.412,38.56,101.47z"/>
<path class="st8" d="M39.21,101.67c0.07,0.067,0.18,0.067,0.25,0l0.39-0.51l-0.3-0.17l-0.37,0.47
	C39.143,101.529,39.155,101.614,39.21,101.67z"/>
<path class="st5" d="M43,20.38c-0.08,0.9,0.17,1.66,0.54,1.69s0.75-0.67,0.83-1.57s-0.17-1.65-0.54-1.68S43.11,19.48,43,20.38z"/>
<path class="st50" d="M46,52.33L46,52.33c-2.125,0.42-4.284,0.648-6.45,0.68c-0.37,0-0.72,0-1.08,0c-0.63,0-1.24,0-1.83-0.07
	c-1.521-0.099-3.033-0.293-4.53-0.58c0.07-0.3,0.15-0.61,0.22-0.91c0-0.09,0-0.18,0.07-0.27c0.005-0.077,0.005-0.153,0-0.23l0,0
	c2.46,0.27,4.935,0.384,7.41,0.34c2.08,0,4-0.19,5.77-0.39l0,0L46,52.33z"/>
<path class="st56" d="M37,39.16h5.92c0.226,0,0.41,0.184,0.41,0.41v9.53c0,0.226-0.184,0.41-0.41,0.41H37
	c-0.226,0-0.41-0.184-0.41-0.41v-9.53C36.59,39.344,36.774,39.16,37,39.16z"/>
<path class="st8" d="M36.68,39.16h5.92c0.226,0,0.41,0.184,0.41,0.41v9.53c0,0.226-0.184,0.41-0.41,0.41h-5.92
	c-0.226,0-0.41-0.184-0.41-0.41v-9.53C36.27,39.344,36.454,39.16,36.68,39.16z"/>
<path class="st57" d="M36.87,39.49h5.54c0.21,0,0.38,0.17,0.38,0.38v8.92c0,0.21-0.17,0.38-0.38,0.38h-5.54
	c-0.21,0-0.38-0.17-0.38-0.38v-8.92C36.49,39.66,36.66,39.49,36.87,39.49z"/>
<path class="st58" d="M40.9,40.55c0,0.122-0.098,0.22-0.22,0.22c-0.122,0-0.22-0.098-0.22-0.22c0-0.122,0.098-0.22,0.22-0.22
	S40.9,40.428,40.9,40.55C40.9,40.55,40.9,40.55,40.9,40.55z"/>
<path class="st40" d="M38.38,45.36c0.145-0.069,0.249-0.203,0.28-0.36c1.75-0.64,2.11-0.87,2.09-1s-0.76,0-1.2,0.06
	c-0.384,0.08-0.757,0.208-1.11,0.38l-1.17,0.67l0.82,0.21C38.178,45.369,38.282,45.383,38.38,45.36z"/>
<path class="st40" d="M25.82,47.88c-0.106-0.567-0.16-1.143-0.16-1.72V46l0,0c0.005-0.253,0.039-0.505,0.1-0.75l0,0
	c0,0,0-0.06,0-0.09c0.019-0.071,0.042-0.142,0.07-0.21l0.09-0.14l0,0l0,0H26h0.2l0,0h0.59h0.78c1.29,0,3.12,0,4.91,0.12l2.53,0.11
	h0.29l2,0.1h0.17h0.35h0.16h0.09l0.3-0.08c0.107-0.039,0.218-0.069,0.33-0.09l0,0c0.233,0.525,0.404,1.076,0.51,1.64
	c0,0.29,0,0.43-0.08,0.48c-0.26,0.17-1.37-0.25-1.5-0.26h-0.17h-0.44H37h-0.41c-3,0.61-5.37,1.06-6.84,1.36
	c-0.982,0.24-2.001,0.284-3,0.13C26.33,48,26,47.94,25.82,47.88z"/>
<path class="st40" d="M41.06,47.24c-0.457,0.137-0.934,0.191-1.41,0.16c-0.801-0.049-1.573-0.319-2.23-0.78l-0.05-1.46
	c0.534-0.276,1.12-0.436,1.72-0.47c1.63-0.09,3.42,0.76,3.4,1.48C42.49,46.44,42.21,46.81,41.06,47.24z"/>
<path class="st8" d="M36.83,24.53c0,0,0.38,1.95,2.08,1.95S41,24.53,41,24.53H36.83z"/>
<path class="st59" d="M77.07,97.2l1.17-12.28c0.131-1.221,1.217-2.111,2.44-2l0,0c1.224,0.126,2.116,1.215,2,2.44l-1.16,12.26
	c-0.126,1.224-1.215,2.116-2.44,2l0,0C77.858,99.504,76.96,98.422,77.07,97.2z"/>
<path class="st60" d="M84.67,96.51l1.17-12.28c0.131-1.221,1.217-2.111,2.44-2l0,0c1.224,0.126,2.116,1.215,2,2.44l-1.17,12.26
	c-0.115,1.221-1.199,2.117-2.419,2.001c-0.004,0-0.007-0.001-0.011-0.001l0,0c-1.221-0.111-2.121-1.19-2.011-2.411
	C84.669,96.516,84.67,96.513,84.67,96.51z"/>
<path class="st61" d="M85.34,81.37h6.39c1.657,0,3,1.343,3,3v1.3c0,1.657-1.343,3-3,3h-6.39c-1.657,0-3-1.343-3-3v-1.3
	C82.34,82.713,83.683,81.37,85.34,81.37z"/>
<path class="st62" d="M79.51,101.22h-6.64c0-1.58,2.26-2.85,3.7-2.85h2.94V101.22z"/>
<path class="st63" d="M78.67,98.37H80c0.723,0,1.31,0.587,1.31,1.31v1.54l0,0h-4l0,0v-1.54c-0.001-0.723,0.586-1.31,1.309-1.311
	C78.636,98.369,78.653,98.369,78.67,98.37z"/>
<path class="st64" d="M87.25,100.38h-6.64c0-1.58,2.26-2.85,3.7-2.85h2.94V100.38z"/>
<path class="st65" d="M86.41,97.53h1.38c0.723,0,1.31,0.587,1.31,1.31v1.54l0,0h-4l0,0v-1.54C85.1,98.117,85.687,97.53,86.41,97.53
	L86.41,97.53z"/>
<path class="st66" d="M76.16,87.9v0.63c1.139,0.392,2.297,0.725,3.47,1c1.292,0.311,2.601,0.545,3.92,0.7l1.64-0.4L76.16,87.9z"/>
<path class="st67" d="M76.16,87.9c0-0.15,0.24-0.54,3.57-0.86c2.36-0.233,5.89-0.41,10.59-0.53c-0.202,0.403-0.454,0.779-0.75,1.12
	c-0.584,0.638-1.296,1.146-2.09,1.49C86.697,89.525,85.863,89.821,85,90C80.62,89.34,76.12,88.56,76.16,87.9z"/>
<path class="st68" d="M83.47,90.2c0.948-0.101,1.854-0.445,2.63-1c1.85-1.48,3.47-3,6.09-9.46C93,77.85,94,75.26,95,72.16
	c2.569-1.329,5.566-1.563,8.31-0.65c-0.14,4.9-0.287,9.8-0.44,14.7c-0.705,0.934-1.556,1.747-2.52,2.41
	c-1.532,1.053-3.302,1.706-5.15,1.9c-1.34,0.07-2.74,0.11-4.2,0.1C88.484,90.61,85.971,90.469,83.47,90.2z"/>
<path class="st61" d="M79.66,86.55c0.875,1.001,1.995,1.759,3.25,2.2c0.844,0.337,1.734,0.543,2.64,0.61
	c1.288-0.761,2.421-1.759,3.34-2.94c0.831-1.241,1.538-2.561,2.11-3.94c-3.35-0.47-7.09,0.14-10.44-0.33
	c-0.382-0.001-0.755,0.114-1.07,0.33c-0.516,0.353-0.863,0.903-0.96,1.52C78.525,84.972,78.936,85.901,79.66,86.55z"/>
<path class="st69" d="M92.2,102.37H92c-0.203,0.007-0.38-0.139-0.41-0.34l-0.85-11h1l0.85,11c0.009,0.182-0.132,0.337-0.314,0.345
	C92.251,102.376,92.225,102.375,92.2,102.37z"/>
<path class="st70" d="M101.55,104.24h-0.1c-0.237,0.006-0.457-0.122-0.57-0.33l-4.55-12.86h1l4.56,12.86
	C102,104.09,101.8,104.24,101.55,104.24z"/>
<path class="st69" d="M78.47,104.52h0.11c0.246,0.002,0.475-0.128,0.6-0.34L85,91.08l-0.89-0.3l-6,13.4
	C78.09,104.37,78.22,104.52,78.47,104.52z"/>
<path class="st69" d="M84.07,90.39h13.38l0,0v0.11c0,0.552-0.448,1-1,1H85.09c-0.552,0-1-0.448-1-1v-0.11H84.07z"/>
<path class="st70" d="M89.75,107.45L89.75,107.45c-0.28,0-0.5-0.17-0.5-0.38v-16h1v16C90.25,107.28,90,107.45,89.75,107.45z"/>
</svg>
